<?xml version="1.0" encoding="utf-8"?>
<!-- Generator: Adobe Illustrator 25.4.1, SVG Export Plug-In . SVG Version: 6.00 Build 0)  -->
<svg version="1.1" id="Layer_1" xmlns="http://www.w3.org/2000/svg" xmlns:xlink="http://www.w3.org/1999/xlink" x="0px" y="0px"
	 viewBox="0 0 238.06 63.11" style="enable-background:new 0 0 238.06 63.11;" xml:space="preserve">
<style type="text/css">
	.st0{fill:url(#SVGID_1_);}
	.st1{fill:url(#SVGID_00000135685169769429685730000006105338916833886875_);}
	.st2{fill:url(#SVGID_00000075129730806414231280000005639087946404325566_);}
	.st3{fill:url(#SVGID_00000152970075261996747060000009030820639692467845_);}
	.st4{fill:url(#SVGID_00000033346422880570278860000006829039748179341212_);}
	.st5{fill:url(#SVGID_00000039814879679318818210000012094149817308187521_);}
	.st6{fill:url(#SVGID_00000047060367718775021750000001911863942400527783_);}
	.st7{fill:url(#SVGID_00000167392750298819013900000017314980746130170780_);}
	.st8{fill:url(#SVGID_00000026885730105058366500000014563003503455480740_);}
	.st9{fill:url(#SVGID_00000147183444463054699370000008910745442774833286_);}
	.st10{fill:url(#SVGID_00000156584657626997234550000001297849513175382189_);}
	.st11{fill:#FFFFFF;}
</style>
<g>
	
		<linearGradient id="SVGID_1_" gradientUnits="userSpaceOnUse" x1="6.8221" y1="64.6909" x2="6.8221" y2="31.2518" gradientTransform="matrix(1 0 0 -1 0 64)">
		<stop  offset="0" style="stop-color:#606CB3"/>
		<stop  offset="1" style="stop-color:#4BAEE2"/>
	</linearGradient>
	<polygon class="st0" points="0.58,0.64 0.58,61.89 13.06,0.64 	"/>
	
		<linearGradient id="SVGID_00000010285683671316641730000002759212237687626402_" gradientUnits="userSpaceOnUse" x1="25.7527" y1="65.5242" x2="-7.9993" y2="7.062" gradientTransform="matrix(1 0 0 -1 0 64)">
		<stop  offset="0" style="stop-color:#4BC1EF"/>
		<stop  offset="1" style="stop-color:#606CB3"/>
		<stop  offset="1" style="stop-color:#4BAEE2"/>
	</linearGradient>
	<polygon style="fill:url(#SVGID_00000010285683671316641730000002759212237687626402_);" points="13.06,0.64 0.58,61.89 29.5,0.64 
			"/>
	
		<linearGradient id="SVGID_00000103962365304756198490000001081709818576358813_" gradientUnits="userSpaceOnUse" x1="50.1319" y1="54.5384" x2="34.0266" y2="26.648" gradientTransform="matrix(1 0 0 -1 0 64)">
		<stop  offset="0" style="stop-color:#606CB3"/>
		<stop  offset="0.35" style="stop-color:#549ED7"/>
		<stop  offset="0.54" style="stop-color:#4FB5E7"/>
		<stop  offset="0.74" style="stop-color:#4FB6E7"/>
		<stop  offset="1" style="stop-color:#4EB7E8"/>
	</linearGradient>
	<path style="fill:url(#SVGID_00000103962365304756198490000001081709818576358813_);" d="M37.46,38.94
		c2.41-0.35,11.59-2.52,13.41-14.68c1.99-13.24-7.88-18.96-9-19.57C49.06,26.69,39.91,36.74,37.46,38.94z"/>
	
		<linearGradient id="SVGID_00000004518031800330380670000015115427314564948629_" gradientUnits="userSpaceOnUse" x1="41.7939" y1="59.3353" x2="25.7056" y2="31.4743" gradientTransform="matrix(1 0 0 -1 0 64)">
		<stop  offset="0" style="stop-color:#606CB3"/>
		<stop  offset="0.35" style="stop-color:#549ED7"/>
		<stop  offset="0.54" style="stop-color:#4FB5E7"/>
		<stop  offset="0.74" style="stop-color:#4FB6E7"/>
		<stop  offset="1" style="stop-color:#4EB7E8"/>
	</linearGradient>
	<path style="fill:url(#SVGID_00000004518031800330380670000015115427314564948629_);" d="M41.77,4.65v0.12V4.69V4.65z"/>
	
		<linearGradient id="SVGID_00000026882139320828115410000003853200213712922244_" gradientUnits="userSpaceOnUse" x1="17.6096" y1="11.3511" x2="13.1074" y2="3.5531" gradientTransform="matrix(1 0 0 -1 0 64)">
		<stop  offset="0" style="stop-color:#4BC1EF"/>
		<stop  offset="1" style="stop-color:#606CB3"/>
		<stop  offset="1" style="stop-color:#4BAEE2"/>
	</linearGradient>
	
		<rect x="13.83" y="52.23" style="fill:url(#SVGID_00000026882139320828115410000003853200213712922244_);" width="3.06" height="8.63"/>
	
		<linearGradient id="SVGID_00000029020746989039748680000005303812880391215236_" gradientUnits="userSpaceOnUse" x1="21.9366" y1="11.3539" x2="17.4409" y2="3.5503" gradientTransform="matrix(1 0 0 -1 0 64)">
		<stop  offset="0" style="stop-color:#4BC1EF"/>
		<stop  offset="1" style="stop-color:#606CB3"/>
		<stop  offset="1" style="stop-color:#4BAEE2"/>
	</linearGradient>
	
		<rect x="18.16" y="52.23" style="fill:url(#SVGID_00000029020746989039748680000005303812880391215236_);" width="3.06" height="8.63"/>
	
		<linearGradient id="SVGID_00000048495602658266096520000017044452758231804816_" gradientUnits="userSpaceOnUse" x1="41.8565" y1="59.3434" x2="41.8565" y2="59.3434" gradientTransform="matrix(1 0 0 -1 0 64)">
		<stop  offset="0" style="stop-color:#606CB3"/>
		<stop  offset="0.03" style="stop-color:#5F6EB5"/>
		<stop  offset="0.68" style="stop-color:#53A3DA"/>
		<stop  offset="1" style="stop-color:#4EB7E8"/>
	</linearGradient>
	<path style="fill:url(#SVGID_00000048495602658266096520000017044452758231804816_);" d="M41.86,4.65L41.86,4.65L41.86,4.65
		C41.86,4.65,41.86,4.67,41.86,4.65z"/>
	
		<linearGradient id="SVGID_00000163791823120087310960000013882014856862844814_" gradientUnits="userSpaceOnUse" x1="26.8198" y1="30.42" x2="51.54" y2="30.42" gradientTransform="matrix(1 0 0 -1 0 64)">
		<stop  offset="0" style="stop-color:#606CB3"/>
		<stop  offset="0.03" style="stop-color:#5F6EB5"/>
		<stop  offset="0.68" style="stop-color:#53A3DA"/>
		<stop  offset="1" style="stop-color:#4EB7E8"/>
	</linearGradient>
	<path style="fill:url(#SVGID_00000163791823120087310960000013882014856862844814_);" d="M36.88,39.42
		c0.2-0.15,0.39-0.31,0.58-0.48c-0.19,0.03-0.38,0.06-0.58,0.07c0,0,13.07-10.35,4.97-34.25L26.82,35.54L43,62.4l8.54-0.51
		L36.88,39.42z"/>
	
		<linearGradient id="SVGID_00000102514309129317179230000015000432635220690062_" gradientUnits="userSpaceOnUse" x1="47.9916" y1="55.7716" x2="31.8826" y2="27.8749" gradientTransform="matrix(1 0 0 -1 0 64)">
		<stop  offset="0" style="stop-color:#606CB3"/>
		<stop  offset="0.35" style="stop-color:#549ED7"/>
		<stop  offset="0.54" style="stop-color:#4FB5E7"/>
		<stop  offset="0.74" style="stop-color:#4FB6E7"/>
		<stop  offset="1" style="stop-color:#4EB7E8"/>
	</linearGradient>
	<path style="fill:url(#SVGID_00000102514309129317179230000015000432635220690062_);" d="M36.88,39.01
		c0.19-0.01,0.39-0.04,0.58-0.07c2.45-2.2,11.6-12.25,4.41-34.25l0,0v0.08C49.95,28.66,36.88,39.01,36.88,39.01z"/>
	
		<linearGradient id="SVGID_00000157271475676593315930000002926707748971530929_" gradientUnits="userSpaceOnUse" x1="26.8198" y1="42.1487" x2="51.54" y2="42.1487" gradientTransform="matrix(1 0 0 -1 0 64)">
		<stop  offset="0" style="stop-color:#606CB3"/>
		<stop  offset="0.03" style="stop-color:#5F6EB5"/>
		<stop  offset="0.68" style="stop-color:#53A3DA"/>
		<stop  offset="1" style="stop-color:#4EB7E8"/>
	</linearGradient>
	<path style="fill:url(#SVGID_00000157271475676593315930000002926707748971530929_);" d="M36.88,39.01
		c0.19-0.01,0.39-0.04,0.58-0.07c2.45-2.2,11.6-12.25,4.41-34.25l0,0v0.08C49.95,28.66,36.88,39.01,36.88,39.01z"/>
	
		<linearGradient id="SVGID_00000047031277508048357580000014840502283143813808_" gradientUnits="userSpaceOnUse" x1="23.9694" y1="15.0363" x2="42.9987" y2="15.0363" gradientTransform="matrix(1 0 0 -1 0 64)">
		<stop  offset="0" style="stop-color:#606CB3"/>
		<stop  offset="0.35" style="stop-color:#549ED7"/>
		<stop  offset="0.54" style="stop-color:#4FB5E7"/>
		<stop  offset="0.74" style="stop-color:#4FB6E7"/>
		<stop  offset="1" style="stop-color:#4EB7E8"/>
	</linearGradient>
	<polygon style="fill:url(#SVGID_00000047031277508048357580000014840502283143813808_);" points="23.97,41.3 35.7,62.39 43,62.39 
		26.82,35.54 	"/>
	<path class="st11" d="M87.72,37.77c7.69-6.73,5.1-20.3-4.81-22.85c-5.92-1.56-12.34-1.22-18.77-1.77v42.34h6.95V41.45
		c6.52-0.79,6.52-0.79,9.69,4.01c1.22,1.86,2.45,3.7,3.67,5.55c3.6,5.46,3.76,5.54,10.76,4.29l-9.93-15.6
		C86.25,38.92,86.99,38.38,87.72,37.77z M83.75,31.48c-3.05,4.64-7.95,2.94-12.56,3.34v-14.6c4.57,0.14,9.34-1.34,12.53,3.06
		c1.8,2.45,1.79,5.76-0.02,8.2H83.75z"/>
	<path class="st11" d="M195.29,31.61c-7.56-4.1-14.79-3.53-18.87,1.2c-4.08,4.74-4.02,12.92,0,17.78
		c4.12,5.01,10.46,5.38,18.73,1.03c0.21,0.83,0.41,1.64,0.6,2.39h6.17V9.24h-6.61L195.29,31.61z M187.99,49.33
		c-4.33,0-7.83-3.47-7.83-7.73c0-0.03,0-0.07,0-0.1c-0.17-4.08,3.05-7.53,7.19-7.7c0.19-0.01,0.37-0.01,0.56,0
		c4.75,0,7.53,2.84,7.53,7.65S192.69,49.23,187.99,49.33z"/>
	<path class="st11" d="M223.35,28.58c-7.51-0.33-13.86,5.4-14.19,12.8c0,0.08-0.01,0.16-0.01,0.24c-0.11,7.5,5.49,12.97,13.48,13.15
		c7.99,0.19,14.02-5.08,14.36-12.72C237.32,34.65,231.31,28.73,223.35,28.58z M222.91,49.42c-4.03-0.08-7.04-3.36-7.02-7.66
		s3.34-7.92,7.34-7.83c4,0.09,6.95,3.53,7.03,7.78C230.3,46.14,227.1,49.49,222.91,49.42z"/>
	<path class="st11" d="M127.83,39.88c-0.87-6.37-4.83-10.35-10.92-11.18c-6.31-0.69-12.33,2.77-14.83,8.51
		c-2.13,5.22-0.55,11.2,3.89,14.74c5.27,3.81,12.46,3.74,17.65-0.18l-2.71-4.17c-5.6,2.31-9.49,2.21-11.43-1.66l9.04-3.03
		L127.83,39.88z M107.84,42.27c0-4.56,1.61-7.31,4.53-8.2c3.38-0.98,5.78,0,8.22,3.72c-2.11,0.77-4.13,1.55-6.17,2.26
		C112.39,40.76,110.21,41.48,107.84,42.27z"/>
	<path class="st11" d="M160.02,53.94h5.9V29.92h-5.9V53.94z"/>
	<path class="st11" d="M142.22,34.11c0.54-0.44,1.21-0.72,1.91-0.79c1.3,0.08,2.58,0.38,3.77,0.9l0.24,0.06l1.62,0.53l1.85-3.54
		L148.81,30l0,0c-3.04-1.4-6.51-1.62-9.71-0.62c-3.22,1.11-5.2,3.36-5.37,6.67c-0.29,3.14,1.68,6.06,4.73,7.02
		c1.54,0.6,3.26,0.92,4.58,1.81c0.55,0.41,1.01,0.92,1.36,1.5c0.63,0.95,0.37,2.22-0.58,2.87c-0.55,0.48-1.25,0.75-1.99,0.76
		c-1.74-0.29-3.44-0.79-5.06-1.49l0,0l-2.98-1.49l-2.12,2.94l2.52,2.05l0,0l0,0l0,0l0,0c3.97,2.94,8.94,3.91,13.03,1.67
		c2.65-1.18,4.27-3.86,4.07-6.71c0-3.08-1.44-5.41-4.35-6.53c-1.46-0.6-2.85-1.35-4.15-2.24c-0.47-0.32-0.88-0.73-1.2-1.19
		c-0.65-0.95-0.39-2.24,0.57-2.88C142.19,34.13,142.2,34.12,142.22,34.11z"/>
	<ellipse class="st11" cx="162.9" cy="22.95" rx="3.02" ry="2.97"/>
</g>
</svg>
